<?xml version="1.0" standalone="no"?>
<!DOCTYPE svg PUBLIC "-//W3C//DTD SVG 20010904//EN"
 "http://www.w3.org/TR/2001/REC-SVG-20010904/DTD/svg10.dtd">
<svg version="1.0" xmlns="http://www.w3.org/2000/svg"
 width="536.000000pt" height="536.000000pt" viewBox="0 0 536.000000 536.000000"
 preserveAspectRatio="xMidYMid meet">
<metadata>
Created by potrace 1.11, written by Peter Selinger 2001-2013
</metadata>
<g transform="translate(0.000000,536.000000) scale(0.100000,-0.100000)"
fill="#000000" stroke="none">
<path d="M2861 4393 c9 -10 8 -17 -2 -30 -12 -15 -12 -16 4 -10 11 4 16 3 12
-3 -3 -6 1 -10 10 -10 10 0 13 5 9 12 -4 7 -3 8 5 4 6 -4 9 -12 6 -17 -8 -12
-55 -12 -55 0 0 6 -9 8 -20 6 -12 -2 -18 0 -15 6 4 5 10 7 15 4 4 -3 13 1 19
9 9 10 7 17 -6 27 -9 8 -14 9 -10 3 10 -17 -19 -37 -43 -29 -11 3 -20 2 -20
-4 0 -5 -9 -8 -20 -6 -12 2 -18 0 -15 -6 4 -5 12 -6 18 -3 7 4 9 4 5 -1 -4 -4
-3 -15 2 -24 6 -13 4 -17 -10 -17 -15 0 -17 3 -7 15 10 12 9 14 -5 8 -10 -3
-20 -1 -24 5 -5 7 -2 8 6 3 9 -6 11 -4 5 5 -6 10 -13 7 -30 -12 -17 -20 -23
-22 -33 -11 -15 16 -32 17 -32 2 0 -5 4 -8 9 -4 5 3 13 0 17 -6 4 -7 3 -9 -4
-5 -6 3 -13 2 -17 -4 -4 -6 -11 -8 -16 -5 -5 4 -9 2 -9 -4 0 -5 -9 -9 -20 -8
-11 1 -20 5 -20 9 0 5 -8 4 -18 -1 -13 -7 -23 -6 -31 2 -10 9 -11 8 -5 -7 5
-12 4 -17 -2 -13 -6 3 -27 2 -47 -3 -28 -6 -41 -4 -52 6 -16 17 -29 19 -19 3
4 -7 1 -10 -7 -7 -8 3 -13 11 -11 17 1 7 -8 4 -22 -6 -14 -10 -26 -22 -26 -27
0 -5 6 -3 14 3 11 9 16 9 22 0 4 -7 3 -9 -4 -5 -6 3 -14 2 -17 -4 -5 -8 -12
-7 -23 2 -11 9 -13 9 -9 1 5 -7 -1 -16 -13 -23 -11 -6 -20 -7 -20 -3 0 4 -4 3
-8 -3 -4 -7 -20 -14 -37 -15 -16 -2 -33 -8 -37 -14 -5 -6 -8 -5 -8 3 0 7 -4
10 -10 7 -5 -3 -10 -2 -10 3 0 15 -33 9 -48 -8 -8 -8 -11 -9 -7 -2 3 6 1 12
-4 12 -6 0 -11 -6 -11 -12 0 -8 -3 -9 -8 -3 -10 14 -44 15 -39 1 3 -6 10 -10
16 -8 7 1 10 -2 7 -7 -3 -5 -15 -7 -26 -4 -12 3 -20 0 -20 -6 0 -7 5 -9 12 -5
7 4 8 3 4 -4 -5 -9 -13 -9 -27 -2 -15 9 -21 7 -25 -5 -3 -8 -10 -15 -15 -15
-4 0 -6 7 -3 15 5 11 2 13 -10 9 -9 -3 -16 -12 -16 -20 0 -8 -6 -11 -17 -7
-10 3 -15 3 -11 -2 10 -11 -23 -34 -39 -28 -7 3 -11 9 -8 13 3 5 -1 7 -7 6
-13 -2 -18 -8 -18 -27 0 -5 5 -7 12 -3 7 4 8 3 4 -5 -6 -9 -11 -9 -22 0 -12
10 -15 10 -12 -2 2 -9 -5 -14 -19 -13 -13 0 -23 -3 -23 -8 0 -5 -10 -4 -22 3
-18 10 -20 9 -15 -5 4 -9 3 -15 -1 -15 -20 3 -33 -2 -27 -11 8 -13 -55 -13
-75 0 -9 5 -19 5 -27 -2 -10 -8 -13 -7 -13 3 -1 8 -7 3 -16 -11 l-15 -25 6 25
c6 24 5 24 -9 6 -13 -16 -18 -17 -32 -5 -16 13 -16 12 -5 -8 6 -13 9 -23 5
-23 -3 0 0 -8 7 -17 13 -16 12 -17 -3 -4 -10 7 -16 17 -13 21 3 5 0 12 -6 16
-8 4 -9 3 -5 -4 4 -7 1 -12 -6 -12 -10 0 -10 -2 -1 -8 16 -10 13 -50 -5 -57
-7 -2 -10 0 -7 5 3 6 0 10 -9 10 -8 0 -17 -6 -19 -12 -3 -8 -6 -7 -6 4 -1 9
-5 20 -11 23 -6 4 -7 -1 -3 -12 6 -16 5 -16 -9 -5 -14 12 -19 9 -33 -15 -9
-15 -14 -20 -11 -10 3 9 1 17 -4 17 -6 0 -10 -8 -10 -17 0 -15 -2 -16 -10 -3
-7 11 -10 11 -10 2 0 -7 -4 -10 -10 -7 -5 3 -10 2 -10 -2 0 -5 -10 -9 -21 -10
-12 -1 -27 -7 -33 -14 -8 -9 -8 -10 2 -5 6 4 12 2 12 -3 0 -6 -14 -11 -31 -11
-20 0 -28 4 -23 12 4 6 3 8 -4 4 -6 -3 -9 -16 -7 -29 4 -21 3 -21 -9 -4 -9 12
-16 14 -21 8 -3 -6 -1 -11 5 -11 6 0 8 -4 5 -10 -3 -5 -1 -10 5 -10 6 0 8 -4
5 -10 -3 -5 1 -10 10 -10 9 0 13 5 10 10 -3 6 -1 10 5 10 7 0 9 -7 6 -16 -4
-12 -2 -15 9 -10 9 3 24 -3 34 -13 18 -18 18 -19 -9 -17 -16 0 -26 4 -24 8 5
8 -5 11 -39 11 -9 0 -17 5 -17 11 0 6 -7 2 -15 -8 -15 -20 -15 -20 -16 0 0 10
-3 13 -6 6 -2 -6 -9 -10 -13 -7 -12 7 -3 -36 10 -49 9 -9 30 -16 57 -18 7 -1
10 -5 7 -10 -5 -7 17 -12 41 -9 6 1 -1 -7 -15 -18 -21 -18 -27 -18 -36 -6 -6
8 -14 12 -17 8 -4 -3 -7 -1 -7 6 0 7 -4 9 -10 6 -5 -3 -10 -2 -10 4 0 6 -7 7
-17 4 -12 -5 -14 -3 -9 8 5 8 -2 3 -15 -11 -13 -14 -20 -20 -15 -13 5 8 4 13
-2 13 -6 0 -12 -6 -15 -12 -6 -18 14 -59 26 -51 5 3 6 -3 2 -16 -5 -16 -3 -20
8 -15 23 8 28 -31 5 -45 -10 -6 -23 -9 -28 -6 -6 4 -13 -1 -16 -9 -3 -9 -10
-13 -15 -10 -5 3 -9 0 -9 -5 0 -6 5 -11 11 -11 5 0 7 -5 4 -11 -4 -6 -14 -8
-22 -5 -8 3 -12 2 -9 -3 3 -5 -1 -14 -9 -21 -13 -11 -15 -10 -9 6 5 17 4 17
-8 3 -7 -9 -19 -14 -25 -12 -7 3 -13 -2 -13 -11 0 -9 -4 -16 -10 -16 -5 0 -2
-9 7 -20 16 -19 18 -19 37 -2 21 17 21 17 2 -5 -11 -13 -25 -23 -33 -23 -16 0
-17 -17 0 -23 6 -3 -1 -4 -18 -4 -23 2 -30 -2 -30 -18 0 -12 7 -20 17 -19 14
1 14 -1 -1 -27 -9 -16 -21 -27 -28 -24 -7 2 -15 0 -18 -6 -4 -5 -11 -7 -16 -4
-5 4 -9 2 -9 -4 0 -5 6 -12 13 -14 7 -3 5 -6 -5 -6 -18 -1 -14 -31 4 -31 5 0
6 5 3 10 -3 6 -2 10 4 10 5 0 8 -12 6 -27 -2 -16 -4 -33 -4 -39 -1 -6 -11 -16
-24 -23 -18 -9 -18 -11 -2 -6 19 5 19 4 3 -9 -10 -7 -18 -23 -18 -35 0 -11 -6
-21 -12 -21 -9 0 -8 -4 2 -10 13 -8 12 -10 -4 -10 -13 0 -16 -4 -9 -12 5 -7 9
-17 8 -23 -3 -22 -27 -70 -38 -77 -9 -6 -8 -11 3 -18 9 -6 10 -10 3 -10 -6 0
-14 4 -18 10 -3 5 -13 6 -21 3 -14 -5 -14 -7 1 -15 15 -9 15 -12 -5 -30 -12
-11 -19 -27 -16 -35 3 -8 2 -12 -3 -9 -16 10 -22 -27 -6 -44 11 -12 12 -19 3
-28 -9 -9 -9 -12 0 -12 9 0 8 -8 -3 -30 -9 -16 -21 -30 -28 -30 -8 0 -7 -4 3
-10 13 -8 12 -10 -2 -10 -10 0 -18 -5 -18 -11 0 -5 -5 -7 -11 -3 -8 4 -7 9 2
15 10 6 10 9 2 9 -15 0 -36 -37 -28 -50 3 -6 1 -10 -5 -10 -6 0 -9 -4 -5 -9 3
-5 1 -13 -5 -16 -6 -4 -10 -3 -9 2 4 23 -3 25 -14 3 -8 -15 -21 -25 -34 -24
-12 0 -22 -2 -21 -5 2 -19 -4 -22 -20 -10 -9 7 -14 9 -10 5 4 -5 0 -15 -10
-22 -16 -12 -16 -13 3 -14 16 0 17 -2 5 -9 -8 -6 -18 -7 -24 -4 -5 3 -6 1 -2
-6 4 -6 11 -9 16 -6 5 3 12 1 15 -5 4 -6 3 -10 -2 -9 -22 4 -34 -2 -27 -14 5
-8 2 -8 -9 2 -16 13 -22 8 -18 -13 1 -5 -4 -4 -11 2 -11 8 -17 6 -27 -9 -11
-18 -9 -24 14 -44 20 -16 24 -25 15 -30 -9 -5 -11 -4 -6 3 17 29 -4 8 -27 -26
-16 -22 -25 -47 -23 -59 4 -16 1 -20 -10 -16 -8 3 -14 2 -13 -3 4 -25 -2 -45
-12 -38 -8 5 -10 -1 -7 -19 3 -15 0 -28 -6 -31 -6 -2 -2 -5 8 -5 16 -1 17 -4
8 -13 -9 -9 -8 -16 6 -32 9 -11 11 -16 5 -12 -7 4 -13 2 -13 -3 0 -6 -6 -10
-12 -8 -8 1 -12 -6 -10 -17 2 -12 -1 -16 -10 -10 -7 4 -5 -2 4 -13 19 -21 24
-53 8 -53 -5 0 -6 -7 -3 -17 4 -11 3 -14 -5 -9 -7 4 -12 2 -12 -4 0 -6 -4 -9
-9 -5 -5 3 -13 0 -17 -6 -4 -7 -3 -9 3 -6 6 4 13 0 17 -8 3 -8 2 -15 -3 -15
-5 0 -11 -10 -14 -22 -5 -21 -5 -21 7 -5 7 9 15 17 18 17 8 0 1 -51 -8 -58 -4
-4 -4 2 0 13 5 14 4 17 -4 9 -6 -6 -8 -18 -4 -28 6 -16 8 -16 27 1 20 18 20
18 2 -10 -15 -23 -20 -25 -33 -15 -13 12 -14 11 -2 -9 8 -12 18 -20 22 -17 4
3 5 -1 2 -9 -3 -8 5 -24 17 -36 18 -17 20 -24 10 -34 -10 -10 -11 -8 -6 6 4 9
3 17 -3 17 -6 0 -9 -8 -8 -17 2 -13 10 -17 27 -15 19 2 21 1 9 -7 -8 -6 -10
-11 -4 -11 7 0 15 -7 18 -16 5 -14 4 -15 -9 -4 -13 11 -14 10 -8 -6 3 -10 11
-22 17 -26 8 -6 8 -8 0 -8 -6 0 -11 -7 -11 -15 0 -11 4 -12 11 -5 11 11 46
-15 46 -34 0 -6 -9 0 -19 13 -17 22 -18 22 -25 5 -4 -10 -4 -15 0 -12 3 4 13
1 20 -7 8 -7 25 -12 39 -11 24 3 28 -1 28 -36 0 -10 8 -20 18 -23 11 -4 19
-11 19 -16 0 -6 6 -7 13 -3 10 6 10 4 0 -7 -7 -7 -13 -21 -13 -32 0 -12 4 -16
13 -11 9 6 9 4 1 -7 -20 -26 -23 -58 -5 -71 15 -12 15 -11 1 6 -14 18 -14 18
7 6 20 -13 20 -15 5 -27 -9 -7 -12 -13 -7 -12 26 3 28 -3 5 -17 -22 -13 -22
-14 -3 -9 16 4 26 -2 43 -25 19 -26 24 -29 38 -18 12 9 11 6 -2 -10 -20 -23
-10 -31 13 -9 11 10 12 9 6 -2 -6 -11 -4 -13 10 -7 15 5 16 4 5 -9 -7 -8 -17
-12 -23 -8 -6 3 -7 1 -3 -6 4 -6 11 -9 15 -7 4 3 8 -1 8 -9 0 -8 -4 -12 -8 -9
-4 2 -11 0 -14 -6 -4 -6 -3 -10 2 -9 19 3 33 -2 33 -12 0 -5 -5 -7 -12 -3 -7
4 -8 3 -4 -4 4 -7 16 -17 28 -23 15 -8 19 -8 14 0 -10 16 3 14 20 -3 16 -17
19 -30 4 -21 -5 3 -10 -3 -10 -14 0 -12 5 -21 11 -21 5 0 7 -5 4 -10 -3 -5 1
-10 10 -10 9 0 13 -4 10 -10 -3 -6 1 -7 9 -4 9 3 13 10 10 15 -3 5 3 6 13 2
16 -6 16 -5 4 10 -7 9 -17 14 -22 11 -5 -3 -9 0 -9 6 0 7 8 9 20 5 11 -4 19
-3 18 2 -2 4 0 9 5 11 16 5 19 1 7 -13 -7 -9 -10 -18 -6 -22 3 -3 -2 -15 -11
-26 -11 -13 -12 -17 -4 -12 11 6 13 4 8 -8 -9 -25 2 -47 25 -47 13 0 17 -4 12
-12 -6 -10 -4 -10 7 -2 8 5 28 16 44 22 26 11 28 11 12 -2 -12 -9 -14 -16 -8
-21 6 -3 11 -1 11 4 0 6 11 11 24 11 13 0 26 3 29 8 2 4 2 2 1 -5 -2 -6 4 -17
12 -23 8 -7 14 -9 14 -5 0 4 6 2 14 -4 8 -7 13 -21 11 -31 -2 -10 3 -21 11
-24 8 -3 14 -1 14 4 0 5 8 6 17 3 16 -6 17 -5 3 13 -14 17 -14 18 2 6 9 -8 15
-19 12 -26 -4 -10 2 -12 22 -8 20 4 25 2 19 -8 -5 -9 -4 -11 4 -6 8 6 9 12 2
20 -6 7 -8 16 -4 19 6 7 -13 11 -31 8 -5 -1 -4 5 3 13 7 9 17 13 22 10 5 -3 9
2 9 10 0 9 4 16 10 16 5 0 7 -6 4 -14 -3 -8 5 -21 18 -30 12 -9 18 -16 14 -16
-5 0 -17 7 -27 16 -17 15 -18 15 -16 -5 1 -15 8 -21 24 -21 13 0 23 -4 23 -10
0 -5 14 -10 31 -10 23 0 30 4 26 14 -8 19 3 28 19 15 9 -7 20 -6 38 6 23 15
39 34 18 21 -5 -3 -9 1 -9 9 0 22 15 18 22 -4 4 -13 12 -18 21 -14 9 3 11 9 6
12 -5 3 4 16 19 29 19 16 30 19 35 11 4 -7 3 -9 -4 -5 -6 3 -13 2 -17 -4 -5
-9 7 -14 27 -11 4 0 4 -7 1 -16 -4 -11 -8 -13 -11 -5 -5 16 -19 15 -25 -1 -3
-8 2 -13 13 -12 25 2 51 25 43 38 -3 6 -1 7 5 3 7 -4 12 -3 12 1 0 5 10 10 22
10 16 2 19 0 9 -6 -7 -5 -12 -14 -9 -21 2 -6 19 6 40 29 19 22 34 42 31 44 -2
3 9 9 26 15 16 6 32 7 36 4 3 -4 3 2 -1 13 -6 17 -5 18 7 8 11 -8 21 -8 44 2
17 7 23 14 15 14 -12 1 -11 4 3 12 13 8 22 7 32 -1 8 -6 19 -9 25 -5 6 4 10 3
9 -2 -4 -22 2 -32 16 -27 20 8 19 -2 -6 -42 -11 -19 -17 -34 -14 -34 4 0 2 -6
-4 -14 -8 -10 -9 -16 -1 -21 5 -3 10 0 10 7 0 7 13 25 28 40 34 32 63 23 56
-18 -3 -15 -1 -23 5 -20 5 3 11 1 13 -4 2 -6 21 -17 43 -25 22 -8 39 -18 38
-22 -3 -14 46 -10 51 4 3 7 1 13 -4 13 -6 0 -10 5 -10 12 0 6 11 1 26 -13 22
-21 24 -21 18 -4 -7 18 -6 19 11 5 11 -9 16 -10 11 -2 -4 7 -2 12 8 12 8 0 18
-4 21 -10 3 -5 12 -10 18 -10 7 0 6 4 -3 11 -12 9 -11 10 5 4 39 -13 54 -14
49 -1 -2 6 4 12 16 13 13 1 18 -2 13 -10 -4 -7 0 -6 10 2 14 11 17 11 18 0 1
-8 1 -18 0 -22 -1 -5 3 -6 9 -2 6 3 7 11 4 17 -4 6 3 5 16 -2 17 -9 21 -9 15
0 -4 7 1 14 15 17 12 3 19 11 16 19 -3 8 0 11 10 7 8 -3 22 1 31 8 14 12 16
12 8 0 -6 -11 -4 -13 8 -8 9 3 19 2 22 -3 11 -18 23 -10 19 13 -2 12 -2 16 2
9 3 -6 11 -9 16 -6 7 4 8 2 4 -4 -5 -8 1 -12 14 -12 12 0 18 -4 15 -10 -3 -5
0 -8 7 -6 36 12 69 16 65 9 -2 -4 4 -16 15 -25 10 -10 18 -14 18 -8 0 5 7 7
15 4 8 -4 12 -10 9 -16 -3 -5 2 -8 12 -6 12 2 18 -2 16 -12 -1 -10 2 -9 13 4
8 11 15 15 15 10 0 -6 7 -11 15 -11 8 0 15 4 15 9 0 5 5 6 10 3 6 -3 13 1 16
9 3 9 10 13 15 10 5 -2 18 0 30 6 20 11 20 11 4 -13 -15 -24 -15 -25 1 -23 10
2 20 8 22 14 2 7 15 12 28 12 14 0 23 -4 20 -9 -3 -5 3 -11 14 -14 11 -3 18
-1 14 4 -3 5 1 9 9 9 8 0 18 8 21 17 6 15 8 15 16 3 8 -13 10 -13 10 1 0 9 7
16 15 17 8 1 22 3 30 4 8 1 15 6 15 12 0 6 4 4 10 -4 11 -17 -5 -31 -29 -23
-13 4 -13 3 -2 -5 9 -7 10 -12 2 -16 -6 -4 -11 -11 -11 -17 0 -13 23 -7 37 11
7 8 13 11 13 6 0 -5 8 1 19 12 10 12 24 22 30 22 7 0 10 4 7 9 -4 5 3 7 14 4
11 -3 20 0 20 6 0 6 11 11 25 11 14 0 25 4 25 9 0 5 9 11 21 14 17 5 18 3 8
-9 -16 -19 -5 -29 18 -15 10 6 14 11 9 11 -13 0 45 44 62 47 8 1 18 7 22 13 6
9 9 9 12 0 3 -10 7 -10 18 1 8 8 30 14 48 13 17 -1 32 3 32 9 0 5 7 7 15 3 8
-3 15 -1 15 5 0 6 4 8 9 4 5 -3 12 -1 16 5 4 6 11 8 16 4 5 -3 8 0 7 8 -2 7 4
13 12 13 8 0 23 8 33 18 10 10 25 16 32 13 9 -3 12 0 9 9 -4 10 0 13 15 10 12
-2 21 0 21 4 0 5 12 9 27 9 22 0 24 -3 12 -12 -22 -17 -21 -36 1 -36 11 0 24
8 27 18 4 9 14 22 22 29 9 7 12 13 8 13 -5 0 -1 7 7 16 9 8 21 12 27 8 7 -4 9
-3 5 4 -3 6 -1 14 5 18 6 3 14 2 18 -4 3 -5 14 2 25 17 l20 26 -25 -20 c-13
-11 -5 0 18 23 42 41 61 54 47 30 -6 -10 -5 -10 8 -1 8 7 18 10 22 6 4 -4 4 0
0 10 -4 12 -1 17 13 17 23 0 75 44 65 56 -4 4 0 5 9 2 11 -4 15 0 15 16 -1 14
6 22 20 24 17 2 58 54 59 74 0 12 22 29 41 33 11 2 19 4 19 5 0 1 8 3 17 5 11
2 15 -2 12 -13 -3 -10 3 -3 12 13 10 17 19 32 19 35 1 3 7 18 14 34 6 16 9 31
7 34 -3 2 2 11 10 19 8 8 12 18 9 23 -3 4 7 11 22 15 15 3 22 9 17 13 -8 5 -7
17 2 37 7 17 13 26 14 21 0 -5 6 -3 13 3 8 6 17 8 20 5 4 -4 5 3 2 14 -2 15 1
19 10 16 10 -4 13 0 10 14 -2 11 3 23 11 26 8 3 14 15 14 26 0 14 4 19 12 14
7 -5 9 -2 6 8 -4 8 2 20 14 27 11 7 17 15 14 18 -3 4 -1 12 5 20 6 7 8 13 4
13 -4 0 -2 7 5 15 7 8 16 12 21 9 14 -8 0 -25 -14 -18 -7 4 -8 3 -4 -2 14 -15
31 -11 43 9 10 17 12 18 17 3 4 -10 3 -15 -3 -11 -6 3 -10 1 -10 -5 0 -7 6
-10 13 -7 6 2 11 10 9 16 -1 6 4 11 10 11 10 0 10 2 0 9 -11 7 -11 11 2 24 15
14 14 16 -2 20 -15 4 -15 5 -1 6 17 1 36 31 20 31 -5 0 -9 18 -9 40 0 22 4 40
9 40 6 0 8 -4 5 -9 -4 -5 5 -4 19 2 26 13 33 27 13 27 -9 0 -8 4 2 10 13 9 13
12 -3 21 -9 6 -15 14 -12 19 3 5 -1 23 -10 39 -13 27 -13 30 0 25 8 -4 15 -1
15 5 0 6 7 8 17 4 12 -5 14 -3 8 7 -6 10 -4 12 8 7 12 -4 14 -2 10 10 -5 12
-2 15 10 10 12 -4 15 -1 12 14 -4 18 -2 19 12 7 14 -10 15 -10 9 0 -6 9 -3 12
10 10 11 -2 18 2 16 10 -1 6 2 12 7 12 5 0 12 8 16 18 5 14 4 15 -6 5 -16 -16
-29 -17 -29 -3 0 6 3 9 8 8 15 -3 42 15 35 25 -3 6 -1 7 6 3 6 -4 9 -12 6 -17
-3 -5 1 -6 10 -3 12 5 13 9 4 20 -10 12 -9 13 5 8 12 -4 15 -2 11 9 -4 8 1 17
10 21 10 3 13 11 9 18 -4 9 -2 8 7 -1 11 -10 11 -15 2 -18 -7 -3 -13 -9 -13
-15 0 -21 29 14 35 43 4 16 11 29 16 29 6 0 7 -5 3 -12 -4 -6 -3 -8 3 -5 6 4
10 23 9 43 -1 20 3 38 8 41 5 4 6 1 2 -5 -4 -8 -2 -10 8 -6 20 8 9 34 -12 27
-14 -4 -15 -3 -2 6 10 7 19 6 30 -4 18 -16 43 -6 38 16 -2 8 3 13 11 11 12 -3
12 0 1 13 -11 13 -10 15 1 10 10 -4 15 1 15 14 0 11 -3 18 -7 15 -4 -2 -5 5
-2 16 3 11 9 17 14 15 4 -3 6 4 4 15 -2 11 1 20 7 20 6 0 5 7 -3 17 -13 15
-12 15 11 3 22 -12 24 -12 12 2 -11 13 -10 16 4 14 9 0 19 5 22 13 3 9 0 11
-8 6 -9 -5 -11 -4 -6 4 4 6 11 9 15 7 14 -9 34 12 34 38 0 14 4 26 9 26 6 0 8
-9 5 -20 -3 -11 -1 -18 3 -15 5 3 12 0 15 -5 5 -8 13 -6 24 4 10 9 21 13 26 9
4 -5 5 -2 1 5 -6 10 -11 11 -24 0 -15 -10 -15 -10 -4 2 7 8 20 15 30 15 11 0
16 6 14 20 -2 11 -4 30 -4 43 0 13 -6 22 -17 23 -14 0 -14 1 -1 7 18 8 20 38
1 34 -9 -2 -10 2 -3 14 6 10 6 30 1 47 -6 22 -5 26 4 18 9 -7 13 -5 13 9 0 10
-4 16 -8 14 -4 -3 -8 0 -8 7 0 6 8 9 20 6 27 -7 26 12 -2 22 -19 7 -19 8 -3
14 13 6 15 10 6 21 -7 8 -11 18 -9 22 1 5 -4 19 -11 32 -12 23 -12 23 11 11
20 -11 21 -10 11 3 -7 8 -10 18 -6 21 3 4 1 7 -6 7 -7 0 -9 5 -5 11 3 6 1 15
-6 19 -17 11 -2 33 17 25 13 -4 14 -3 3 10 -9 10 -16 12 -25 5 -8 -7 -12 -6
-12 4 0 7 7 13 16 13 31 0 38 3 38 17 0 8 -5 13 -11 12 -6 -2 -8 -1 -3 1 4 3
4 10 1 15 -4 7 -2 8 4 4 22 -13 32 4 17 28 -8 12 -12 26 -8 31 5 4 -3 4 -17 1
-14 -4 -20 -4 -13 1 7 5 11 18 10 30 -1 16 -5 19 -13 12 -8 -7 -15 -6 -20 2
-4 7 -3 9 4 5 6 -4 10 1 9 13 0 11 -5 17 -10 14 -4 -3 -15 3 -23 13 -9 11 -12
12 -8 4 4 -9 -2 -6 -13 5 -14 13 -16 22 -9 27 8 6 7 8 -1 8 -7 0 -10 7 -6 16
4 12 7 13 14 3 4 -8 11 -10 16 -6 4 5 -3 17 -17 28 l-25 20 24 -11 c21 -11 23
-10 18 4 -3 8 -1 18 5 22 7 5 8 2 3 -6 -5 -9 -4 -11 4 -6 9 6 9 11 0 22 -14
17 -23 19 -13 2 4 -7 3 -8 -5 -4 -9 6 -9 11 1 24 10 12 10 14 1 8 -8 -4 -13
-2 -13 4 0 6 -4 8 -10 5 -5 -3 -10 2 -11 12 0 11 -3 13 -6 5 -4 -10 -9 -9 -20
5 -8 10 -11 12 -7 4 4 -9 3 -12 -4 -7 -6 4 -9 13 -5 21 6 18 -8 19 -27 3 -8
-7 -12 -9 -8 -4 4 5 3 17 -3 28 -10 18 -9 18 11 8 12 -6 23 -10 24 -8 1 2 7
10 14 20 10 12 10 18 1 24 -7 4 -9 3 -6 -3 7 -11 -22 -28 -31 -18 -3 3 0 5 7
5 7 0 9 5 6 10 -4 6 -12 7 -18 4 -7 -4 -9 -4 -5 1 4 4 2 15 -4 24 -9 11 -6 10
9 -2 15 -13 23 -15 28 -7 4 6 4 14 1 17 -3 4 -6 0 -6 -7 0 -9 -7 -7 -21 6 -16
14 -23 15 -26 7 -3 -7 -9 -13 -14 -13 -4 0 -5 8 -2 18 6 15 5 16 -13 2 -17
-14 -18 -14 -6 2 7 9 21 15 31 13 10 -2 18 2 18 9 0 13 -7 15 -52 19 -19 2
-23 6 -19 21 5 16 4 17 -9 5 -8 -8 -13 -17 -11 -20 2 -3 -4 -6 -12 -6 -10 0
-11 4 -4 11 15 15 12 52 -5 66 -12 10 -15 10 -15 -1 0 -7 -8 -2 -17 11 -10 14
-18 31 -18 37 0 7 -4 12 -9 12 -5 0 -13 5 -17 13 -7 10 -9 10 -9 1 0 -7 -5
-13 -11 -13 -5 0 -8 4 -5 9 6 9 -7 9 -34 -2 -26 -10 -51 -4 -45 10 3 7 8 20
11 28 3 8 1 15 -6 15 -6 0 -9 4 -6 9 3 5 -2 15 -12 22 -15 13 -16 12 -3 -3 15
-21 9 -23 -21 -7 -15 8 -19 8 -13 -1 4 -7 -1 -14 -14 -17 -18 -5 -19 -8 -9
-21 11 -13 11 -14 -2 -7 -8 6 -19 10 -24 10 -5 0 -11 7 -13 15 -4 12 -2 12 5
2 7 -10 11 -10 22 3 10 12 10 15 -4 15 -9 0 -16 7 -16 16 0 10 -6 14 -14 11
-10 -4 -12 1 -9 16 3 16 2 18 -5 9 -7 -11 -11 -8 -16 10 -5 14 -9 18 -13 10
-2 -6 -9 -10 -14 -6 -5 3 -9 1 -9 -5 0 -6 -7 -7 -17 -4 -11 4 -14 3 -9 -5 5
-8 1 -10 -10 -5 -12 4 -15 3 -10 -5 5 -8 2 -10 -8 -6 -9 3 -16 10 -16 16 0 5
-4 7 -10 3 -5 -3 -6 -13 -3 -23 3 -9 4 -15 2 -12 -2 3 -13 16 -24 30 -19 24
-19 24 0 10 19 -15 19 -15 0 12 -16 21 -23 24 -34 15 -11 -9 -13 -9 -8 -1 4 7
0 14 -8 17 -10 4 -12 1 -8 -10 5 -13 2 -15 -15 -11 -12 4 -20 3 -17 -2 3 -4
-11 -11 -29 -14 -31 -6 -34 -10 -30 -34 4 -27 4 -27 -13 -6 -10 12 -26 24 -37
28 -14 5 -17 2 -12 -11 5 -15 4 -15 -9 1 -15 20 -15 20 -16 0 0 -15 -2 -16 -7
-3 -5 11 -14 13 -32 8 -19 -5 -21 -7 -6 -8 17 -1 15 -5 -12 -24 -25 -19 -29
-26 -19 -37 10 -10 8 -10 -10 -1 -15 8 -20 17 -16 29 6 16 6 16 -10 0 -19 -18
-23 -33 -7 -23 6 3 7 -1 3 -10 -4 -12 -8 -13 -13 -5 -4 6 -15 10 -25 8 -10 -2
-20 4 -22 12 -3 11 -2 11 4 3 6 -8 14 -9 23 -3 13 9 13 10 0 11 -8 0 -23 2
-33 4 -13 2 -17 -1 -13 -11 3 -9 1 -12 -4 -9 -6 3 -10 14 -11 23 0 12 -3 11
-9 -5 -5 -13 -12 -23 -15 -23 -4 0 -4 4 -1 9 3 5 -1 11 -9 15 -8 3 -14 0 -12
-7 1 -7 -4 -11 -11 -9 -9 2 -10 -3 -3 -16 8 -14 6 -18 -10 -19 -10 -1 -19 2
-19 8 0 5 -4 9 -9 9 -5 0 -8 -12 -5 -26 4 -22 3 -23 -10 -12 -7 7 -11 17 -8
22 3 5 0 6 -7 2 -6 -4 -9 -11 -6 -16 8 -13 -22 -19 -34 -7 -9 9 -10 8 -5 -7 5
-13 4 -17 -3 -13 -6 4 -14 0 -17 -9 -4 -10 -2 -13 7 -9 6 4 3 -1 -7 -9 -24
-19 -32 -20 -42 -4 -5 7 -2 9 8 6 9 -4 15 0 15 8 0 12 -4 12 -23 0 -26 -18
-39 -10 -22 13 11 14 10 14 -7 0 -11 -9 -27 -14 -35 -11 -11 4 -10 1 3 -12 23
-23 22 -29 -3 -16 -14 8 -20 8 -20 0 0 -6 -4 -9 -8 -6 -5 3 -9 -1 -9 -9 0 -11
5 -12 21 -3 17 9 19 8 8 -3 -13 -14 -102 -21 -102 -8 0 3 -10 4 -23 2 -15 -3
-29 3 -42 19 -20 23 -20 23 0 8 20 -15 20 -15 1 15 -11 16 -27 36 -36 45 -9 8
-10 11 -3 6 10 -6 12 -4 7 8 -3 9 -13 16 -21 16 -8 0 -11 5 -8 10 3 6 2 10 -3
10 -5 0 -12 8 -14 18 -3 10 -12 19 -21 19 -9 0 -14 -4 -11 -9 3 -5 10 -5 16
-2 7 4 8 2 4 -5 -4 -6 -2 -20 5 -29 16 -20 -31 20 -74 63 -25 26 -29 27 -23 8
4 -12 3 -24 -2 -27 -6 -3 -10 0 -9 7 2 59 -11 71 -45 40 -15 -14 -19 -14 -16
-3 2 8 8 19 13 23 6 5 -1 5 -14 2 -18 -6 -22 -4 -16 6 5 8 5 11 1 7 -5 -4 -19
-3 -32 2 -15 6 -26 5 -30 -2 -4 -6 -3 -8 4 -4 6 3 13 3 16 -2 2 -4 -4 -9 -15
-9 -10 -1 -19 2 -19 8 0 5 -7 9 -15 9 -8 0 -15 5 -15 10 0 6 -9 10 -21 10 -11
0 -17 5 -14 10 3 6 -1 10 -10 10 -10 0 -13 5 -9 13 6 9 4 9 -8 -1 -14 -11 -17
-10 -22 6 -4 10 -13 19 -21 19 -11 0 -12 -4 -4 -14z m-61 -47 c0 -2 -7 -7 -16
-10 -8 -3 -12 -2 -9 4 6 10 25 14 25 6z m270 -47 c0 -6 -4 -7 -10 -4 -5 3 -10
11 -10 16 0 6 5 7 10 4 6 -3 10 -11 10 -16z m-19 -16 c13 -16 12 -17 -3 -4
-17 13 -22 21 -14 21 2 0 10 -8 17 -17z m1119 3 c0 -2 -7 -7 -16 -10 -8 -3
-12 -2 -9 4 6 10 25 14 25 6z m-1065 -26 c3 -5 1 -10 -4 -10 -6 0 -11 5 -11
10 0 6 2 10 4 10 3 0 8 -4 11 -10z m980 0 c3 -5 1 -10 -4 -10 -6 0 -11 5 -11
10 0 6 2 10 4 10 3 0 8 -4 11 -10z m-95 -24 c0 -2 -7 -7 -16 -10 -8 -3 -12 -2
-9 4 6 10 25 14 25 6z m-323 -111 c0 -8 -4 -12 -9 -9 -4 3 -8 9 -8 15 0 5 4 9
8 9 5 0 9 -7 9 -15z m-87 -25 c0 -5 -8 -10 -17 -10 -15 0 -16 2 -3 10 19 12
20 12 20 0z m1155 -30 c-3 -5 -12 -10 -18 -10 -7 0 -6 4 3 10 19 12 23 12 15
0z m75 -64 c0 -3 -4 -8 -10 -11 -5 -3 -10 -1 -10 4 0 6 5 11 10 11 6 0 10 -2
10 -4z m120 -286 c0 -5 -2 -10 -4 -10 -3 0 -8 5 -11 10 -3 6 -1 10 4 10 6 0
11 -4 11 -10z m-3930 -355 c0 -2 -6 -5 -13 -8 -8 -3 -14 1 -14 8 0 7 6 11 14
8 7 -3 13 -6 13 -8z m3985 -184 c3 -5 0 -13 -6 -17 -7 -4 -9 -3 -5 4 3 5 0 13
-6 15 -9 4 -10 6 -1 6 6 1 14 -3 18 -8z m18 -64 c-3 -4 -6 -7 -7 -5 -1 2 -8
12 -16 22 -14 18 -14 18 7 6 12 -8 19 -18 16 -23z m27 -142 c0 -5 -5 -3 -10 5
-5 8 -10 20 -10 25 0 6 5 3 10 -5 5 -8 10 -19 10 -25z m-4240 -155 c0 -5 -2
-10 -4 -10 -3 0 -8 5 -11 10 -3 6 -1 10 4 10 6 0 11 -4 11 -10z m3940 -104 c0
-2 -8 -10 -17 -17 -16 -13 -17 -12 -4 4 13 16 21 21 21 13z m70 -10 c0 -3 -4
-8 -10 -11 -5 -3 -10 -1 -10 4 0 6 5 11 10 11 6 0 10 -2 10 -4z m-70 -66 c0
-5 -5 -10 -11 -10 -5 0 -7 5 -4 10 3 6 8 10 11 10 2 0 4 -4 4 -10z m-159 -187
c13 -16 12 -17 -3 -4 -17 13 -22 21 -14 21 2 0 10 -8 17 -17z m-3846 -1193 c3
-5 1 -10 -4 -10 -6 0 -11 5 -11 10 0 6 2 10 4 10 3 0 8 -4 11 -10z m45 -34 c0
-2 -7 -7 -16 -10 -8 -3 -12 -2 -9 4 6 10 25 14 25 6z m1104 -222 c3 -8 2 -12
-4 -9 -6 3 -10 10 -10 16 0 14 7 11 14 -7z m-667 -9 c0 -8 -4 -12 -9 -9 -5 3
-6 10 -3 15 9 13 12 11 12 -6z"/>
<path d="M2664 4340 c2 -16 20 -14 24 2 3 10 2 10 -6 -1 -7 -9 -11 -10 -15 -2
-4 7 -5 8 -3 1z"/>
<path d="M4310 4289 c0 -5 5 -7 10 -4 6 3 10 8 10 11 0 2 -4 4 -10 4 -5 0 -10
-5 -10 -11z"/>
<path d="M4694 4147 c3 -35 17 -49 36 -37 12 8 12 10 1 10 -11 0 -11 3 0 18
13 16 13 16 -5 2 -18 -14 -19 -13 -13 3 4 10 3 16 -2 12 -5 -3 -11 1 -14 7 -3
7 -4 0 -3 -15z"/>
<path d="M4895 3881 c-3 -5 -2 -12 3 -15 5 -3 9 1 9 9 0 17 -3 19 -12 6z"/>
<path d="M4981 3736 c-7 -8 -8 -17 -3 -20 6 -3 12 3 15 14 6 24 4 25 -12 6z"/>
<path d="M490 1605 c0 -7 30 -13 34 -7 3 4 -4 9 -15 9 -10 1 -19 0 -19 -2z"/>
<path d="M4050 1591 c0 -7 -6 -11 -13 -8 -7 3 -21 -1 -30 -8 -16 -11 -16 -13
-2 -19 9 -3 13 -2 10 3 -3 5 -1 12 5 16 5 3 10 0 10 -7 0 -8 5 -7 17 5 9 9 14
20 10 23 -4 4 -7 2 -7 -5z"/>
<path d="M540 1540 c-12 -7 -10 -9 7 -7 12 0 19 5 17 9 -6 10 -6 10 -24 -2z"/>
<path d="M590 1350 c-11 -7 -11 -10 -2 -10 8 0 10 -5 6 -12 -5 -9 -3 -9 9 1 9
7 14 17 11 22 -6 11 -6 11 -24 -1z"/>
<path d="M617 1316 c-4 -10 -1 -13 8 -9 8 3 12 9 9 14 -7 12 -11 11 -17 -5z"/>
<path d="M1696 1125 c4 -8 8 -15 10 -15 2 0 4 7 4 15 0 8 -4 15 -10 15 -5 0
-7 -7 -4 -15z"/>
<path d="M1010 990 c0 -5 5 -10 11 -10 5 0 7 5 4 10 -3 6 -8 10 -11 10 -2 0
-4 -4 -4 -10z"/>
<path d="M2736 942 c-3 -5 1 -9 9 -9 8 0 12 4 9 9 -3 4 -7 8 -9 8 -2 0 -6 -4
-9 -8z"/>
</g>
</svg>
